<?xml version="1.0" encoding="UTF-8"?>
<svg id="Layer_2" data-name="Layer 2" xmlns="http://www.w3.org/2000/svg" xmlns:xlink="http://www.w3.org/1999/xlink" viewBox="0 0 258.1731 268.9046">
  <defs>
    <linearGradient id="linear-gradient" x1="68.126" y1="113.3942" x2="258.1731" y2="113.3942" gradientUnits="userSpaceOnUse">
      <stop offset="0" stop-color="#fff" stop-opacity=".2"/>
      <stop offset="1" stop-color="#fff" stop-opacity=".7"/>
    </linearGradient>
    <clipPath id="clippath">
      <ellipse cx="199.9183" cy="123.9259" rx="19.0486" ry="12.7518" transform="translate(-33.2843 154.6095) rotate(-39.2897)" fill="none"/>
    </clipPath>
    <clipPath id="clippath-1">
      <ellipse cx="178.1157" cy="175.8455" rx="19.4674" ry="13.032" transform="translate(-71.0903 152.5382) rotate(-39.2894)" fill="none"/>
    </clipPath>
  </defs>
  <g id="OBJECTS">
    <g>
      <path d="M50.454,112.2915c8.4311-37.0622,46.9673-59.3053,83.1512-47.6684,.7268,.2337,1.4598,.4775,2.1988,.7315,47.3005,16.2596,31.78,64.2991,55.4302,79.0805,23.6502,14.7813,40.6488,36.2144,30.3019,64.299-10.347,28.0846-73.1679,54.6911-122.6855,24.3893-38.9245-23.8195-59.1252-73.6696-48.3966-120.8319Z" fill="none" stroke="#bfd9ff" stroke-miterlimit="10" stroke-width="1.1086"/>
      <circle cx="31.2257" cy="63.507" r="30.6713" transform="translate(-36.4163 84.3094) rotate(-80.9118)" fill="none" stroke="#bfd9ff" stroke-miterlimit="10" stroke-width="1.1086"/>
      <g>
        <path d="M178.7286,202.0825H71.4556c-2.4084,0-4.0183-2.4804-3.0376-4.6801L144.5329,26.6774c.5347-1.1992,1.7247-1.9716,3.0376-1.9716h107.273c2.4084,0,4.0183,2.4804,3.0376,4.6801l-76.1149,170.725c-.5346,1.1992-1.7246,1.9716-3.0376,1.9716Z" fill="url(#linear-gradient)"/>
        <path d="M211.2413,81.6571L245.8601,4.0074c.8397-1.8835-.5387-4.0074-2.601-4.0074h-97.1354c-3.6046,0-6.8718,2.1206-8.3396,5.4128l-35.1447,78.8292c-.8397,1.8835,.5388,4.0074,2.601,4.0074h95.844c4.3901,0,8.3693-2.5827,10.1569-6.5923Z" fill="#fff"/>
        <path d="M198.6771,134.8701l34.6188-77.6497c.8398-1.8835-.5387-4.0074-2.601-4.0074h-97.1354c-3.6046,0-6.8718,2.1206-8.3396,5.4128l-35.1447,78.8292c-.8397,1.8835,.5388,4.0074,2.601,4.0074h95.8441c4.39,0,8.3692-2.5827,10.1568-6.5923Z" fill="none" stroke="#fff" stroke-miterlimit="10" stroke-width="1.1086"/>
        <polyline points="154.6501 107.4354 159.0847 107.4354 147.1672 130.7161 75.108 130.7161 78.0166 125.034" fill="none" opacity=".39" stroke="#a1c2ff" stroke-miterlimit="10" stroke-width=".5543"/>
        <g>
          <g>
            <ellipse cx="152.2864" cy="30.5345" rx="21.8753" ry="16.4379" transform="translate(17.215 107.2106) rotate(-40.9202)" fill="#e6f4ff"/>
            <ellipse cx="152.2864" cy="30.5346" rx="19.3017" ry="14.504" transform="translate(17.2146 107.21) rotate(-40.9199)" fill="#94c3ff"/>
          </g>
          <g>
            <g>
              <path d="M152.5935,33.8841s-8.7913,1.4534-12.5451,2.9327c-2.549,1.5351-2.9547,2.7558-3.5632,4.587,0,0-.0061,.0125-.0091,.0187,2.044,3.5725,5.9338,5.8438,11.0126,5.8438,6.5619,0,13.3114-3.7866,17.6298-9.2855-2.3509-3.4521-12.525-4.0967-12.525-4.0967Z" fill="#4361c4"/>
              <path d="M149.5,30.1423l-1.5159,6.4048c-.1897,.8012,.2093,1.4717,.9667,1.5947,1.1864,.1926,3.077,.1776,5.0942-1.1122,.6137-.3923,1.017-1.0478,1.0612-1.67,.2128-2.9888,.8197-9.1163,.8197-9.1163l-6.4259,3.899Z" fill="#ff8d68"/>
              <path d="M148.1338,23.3546s-4.1282,8.3608-3.3251,10.6062c.9295,1.5328,9.2317-1.9097,10.5911-4.1511,1.3593-2.2414,4.4834-6.301,2.05-8.8398-2.4333-2.5389-6.192-1.6748-9.316,2.3847Z" fill="#ff8d68"/>
            </g>
            <path d="M148.1338,23.3546s-.7271-2.9531,1.7728-4.6931,5.7062-1.392,6.8602,.348c1.1541,1.74,1.2532,2.001,1.2532,2.001,0,0,1.2302,.261,1.639,1.566,.4087,1.305-2.1922,4.611-3.2496,5.568s-.8395,.9821-.8395,.9821l-.3542-.4601s.2015-2.523,.7126-4.002c.1375-.783-.7562-1.914-2.3343-2.175-1.5782-.261-2.1578,1.2082-5.4602,.8651Z" fill="#7e3636"/>
            <path d="M156.1843,27.1589s.5735-1.0665,1.5956-.765c1.0154,.3395-1.0117,3.5342-2.0863,3.3127-1.0288-.2636,.4907-2.5477,.4907-2.5477Z" fill="#ff8d68"/>
            <path d="M155.181,34.1475s-2.2065,2.4359-4.378,3.1319c-.3813,.1161-.9455,.8701-.9455,.8701l-.3966-1.0441s-1.4905-.8699-1.0581-2.378l-.2985,.2321-.7975,1.9719s-.5902,1.856-.5577,2.5521l1.9979-1.1021s1.2176,.406,2.1873,.0581c0,0,.413,1.3919,.7856,1.5079,.3727,.116,3.3917-2.726,3.8484-3.7119,.5147-.9861,.3915-1.9721,.3915-1.9721l-.7788-.1159Z" fill="#fff"/>
          </g>
        </g>
        <g>
          <path d="M218.8924,37.8261h-42.0788c-1.291,0-1.9568-1.0465-1.4869-2.3376l5.956-16.364c.47-1.2911,1.8975-2.3377,3.1886-2.3377h42.0788c1.2911,0,1.9568,1.0466,1.4869,2.3377l-5.956,16.364c-.4699,1.2911-1.8975,2.3376-3.1886,2.3376Z" fill="#a1c2ff" opacity=".39"/>
          <polygon points="221.3232 24.1895 185.0887 24.1895 185.7269 22.4362 221.9613 22.4362 221.3232 24.1895" fill="#94c3ff"/>
          <polygon points="205.4183 28.2805 183.5997 28.2805 184.2378 26.5273 206.0565 26.5273 205.4183 28.2805" fill="#94c3ff"/>
          <polygon points="187.902 31.9819 182.2525 31.9819 182.8907 30.2286 188.5401 30.2286 187.902 31.9819" fill="#94c3ff"/>
        </g>
        <g>
          <path d="M178.7624,45.3536c-.5875,1.4541-2.2426,2.6329-3.6967,2.6329s-2.1567-1.1788-1.5691-2.6329c.5875-1.4541,2.2425-2.633,3.6967-2.633s2.1566,1.1789,1.5691,2.633Z" fill="#94c3ff"/>
          <path d="M187.9084,45.3536c-.5875,1.4541-2.2426,2.6329-3.6967,2.6329s-2.1567-1.1788-1.5692-2.6329,2.2426-2.633,3.6967-2.633,2.1567,1.1789,1.5692,2.633Z" fill="#94c3ff"/>
          <path d="M197.0544,45.3536c-.5875,1.4541-2.2426,2.6329-3.6967,2.6329s-2.1567-1.1788-1.5692-2.6329,2.2426-2.633,3.6967-2.633,2.1567,1.1789,1.5692,2.633Z" fill="#94c3ff"/>
          <path d="M206.2004,45.3536c-.5875,1.4541-2.2426,2.6329-3.6967,2.6329s-2.1567-1.1788-1.5692-2.6329,2.2426-2.633,3.6967-2.633,2.1567,1.1789,1.5692,2.633Z" fill="#ff8d02"/>
          <path d="M215.3464,45.3536c-.5876,1.4541-2.2426,2.6329-3.6968,2.6329s-2.1566-1.1788-1.5691-2.6329,2.2426-2.633,3.6967-2.633,2.1567,1.1789,1.5692,2.633Z" fill="#a1c2ff" opacity=".39"/>
          <g>
            <g>
              <polygon points="193.6153 53.3563 182.0054 65.4228 169.9758 70.1932 183.6109 80.2019 197.3145 68.5095 193.6153 53.3563" fill="#a1c2ff" opacity=".39"/>
              <polygon points="190.8647 60.3659 182.0054 65.4228 174.5128 70.1586 184.675 77.4569 194.2829 68.6805 190.8647 60.3659" fill="#a1c2ff" opacity=".7"/>
              <polygon points="193.6153 53.3563 182.0054 65.4228 169.9758 70.1932 183.5731 80.2954 197.3145 68.5095 193.6153 53.3563" fill="none" stroke="#4361c4" stroke-miterlimit="10" stroke-width=".2806"/>
              <path d="M188.162,69.632c-.1879,.4649-.7171,.8419-1.182,.8419s-.6896-.377-.5017-.8419c.1878-.4649,.717-.8418,1.1819-.8418s.6896,.3769,.5018,.8418Z" fill="#4361c4"/>
              <polyline points="176.7464 61.3071 187.0216 69.4449 168.6842 70.3803" fill="none" stroke="#4361c4" stroke-miterlimit="10" stroke-width=".2806"/>
              <polyline points="182.8135 83.1015 187.3957 69.4449 199.4858 68.2289" fill="none" stroke="#4361c4" stroke-miterlimit="10" stroke-width=".2806"/>
              <line x1="194.2956" y1="51.6726" x2="187.3957" y2="69.4449" fill="none" stroke="#4361c4" stroke-miterlimit="10" stroke-width=".2806"/>
            </g>
            <path d="M177.681,61.1512c-.3153,.7803-1.2035,1.4129-1.9838,1.4129s-1.1574-.6326-.8421-1.4129c.3153-.7804,1.2035-1.413,1.9838-1.413s1.1574,.6326,.8421,1.413Z" fill="#94c3ff"/>
            <path d="M169.3665,70.3896c-.3153,.7803-1.2035,1.4129-1.9838,1.4129s-1.1574-.6326-.8421-1.4129c.3153-.7804,1.2035-1.413,1.9838-1.413s1.1574,.6326,.8421,1.413Z" fill="#ff8d02"/>
            <path d="M184.1479,83.3233c-.3153,.7803-1.2035,1.4129-1.9839,1.4129s-1.1573-.6326-.842-1.4129c.3152-.7804,1.2034-1.413,1.9838-1.413s1.1574,.6326,.8421,1.413Z" fill="#94c3ff"/>
            <path d="M201.1299,68.2457c-.3153,.7804-1.2035,1.413-1.9838,1.413s-1.1574-.6326-.8421-1.413c.3153-.7803,1.2035-1.4129,1.9838-1.4129s1.1574,.6326,.8421,1.4129Z" fill="#94c3ff"/>
            <path d="M195.864,51.201c-.3153,.7803-1.2034,1.4129-1.9838,1.4129s-1.1574-.6326-.8421-1.4129c.3153-.7804,1.2035-1.413,1.9838-1.413s1.1574,.6326,.8421,1.413Z" fill="#ff8d02"/>
          </g>
        </g>
        <g>
          <polygon points="163.783 62.9911 128.5588 62.9911 131.2512 56.3271 166.4754 56.3271 163.783 62.9911" fill="#4361c4"/>
          <polygon points="142.5722 77.9852 122.5008 77.9852 123.6547 75.1292 143.7261 75.1292 142.5722 77.9852" fill="#a1c2ff" opacity=".39"/>
          <polygon points="139.5647 72.2732 124.8086 72.2732 127.501 65.6091 142.2571 65.6091 139.5647 72.2732" fill="#a1c2ff" opacity=".39"/>
        </g>
        <g>
          <path d="M217.7956,143.3701l17.2362-38.6606c.4181-.9378-.2682-1.9952-1.295-1.9952h-48.3622c-1.7947,0-3.4214,1.0558-4.1522,2.6949l-17.498,39.2479c-.4181,.9377,.2683,1.9952,1.295,1.9952h47.7193c2.1857,0,4.1669-1.2859,5.0569-3.2822Z" fill="#fff"/>
          <g>
            <ellipse cx="199.9183" cy="123.9259" rx="19.0486" ry="12.7518" transform="translate(-33.2843 154.6095) rotate(-39.2897)" fill="#a1c2ff" opacity=".39"/>
            <g clip-path="url(#clippath)">
              <g>
                <path d="M201.2105,125.5494s7.842,3.8963,8.6718,7.468c.8298,3.5716-2.6499,12.9878-2.6499,12.9878h-31.1707s5.1097-11.0397,9.0814-13.6372c3.9718-2.5976,11.6388-4.5805,11.6388-4.5805l4.4286-2.2381Z" fill="#4385ff"/>
                <g>
                  <g>
                    <path d="M197.9956,123.0145l-2.4462,5.2849c-.3059,.6611-.1246,1.2643,.4454,1.4363,.8928,.2693,2.3789,.4261,4.2144-.4847,.5584-.2771,1.0034-.7958,1.1603-1.3184,.7534-2.5105,2.432-7.6423,2.432-7.6423l-5.8059,2.7242Z" fill="#94c3ff"/>
                    <path d="M198.2559,117.1472s-4.8791,6.7062-4.6898,8.6787c.4283,1.3806,7.6166-.789,9.1228-2.5642,1.5062-1.7752,4.7536-4.931,3.343-7.2979s-4.5285-1.9724-7.776,1.1834Z" fill="#94c3ff"/>
                  </g>
                  <path d="M198.4618,116.1623s-.0792,.1051-.1737,.264c-.2832,.4769-.7033,1.4385,.4692,1.5015l1.5634,.0841s2.5111-1.4293,3.497,.0841c.7338,1.5132-1.6576,2.438-1.4588,3.1946,.1987,.7567,.0985,.5885-.2395,1.0089-.3379,.4203-.6097,1.0929-1.7383,1.5973-1.1286,.5045-2.0194,.4204-3.0979,1.0089-1.0784,.5884-3.1607-.0841-3.3773-.5885-.5027-.4204-.7922,.5044-1.114,1.0929-.3219,.5885-1.3146,.7567-.3593,1.5132,.9554,.7567,1.6603,1.093,3.3289,.0841,1.6687-1.0088,1.7187-.9247,3.4018-1.3451,1.6832-.4203,2.9342-1.2702,3.5757-2.3165s.8486-2.3915,1.3887-2.8959,.8408,0,.603,.5885,2.0534-.5044,2.5985-2.2699c.5452-1.7655-.4136-1.6814-.5104-2.6903-.0968-1.0088,1.0513-2.1858-.1724-3.1106-1.2238-.9248-2.3718,.2522-2.8067-.3363-.4347-.5885-2.3344-.6725-3.8527,.5885-1.5184,1.2611-1.6044,3.0476-1.6044,3.0476" fill="#4361c4"/>
                  <path d="M203.8413,120.5866s.6592-.8513,1.4018-.5045c.7299,.3783-1.4871,2.9005-2.2867,2.6167-.7554-.3153,.8849-2.1122,.8849-2.1122Z" fill="#94c3ff"/>
                  <path d="M193.3837,124.5694s.7167-2.6062,2.534-2.9425,2.6367,.7566,2.5153,1.6814,.6836,1.4293,.6836,1.4293c0,0-4.5822,2.1857-5.7329-.1682Z" fill="#4361c4"/>
                </g>
              </g>
            </g>
          </g>
        </g>
        <path d="M196.1137,195.5619l17.2362-38.6606c.4181-.9378-.2682-1.9952-1.295-1.9952h-48.3622c-1.7947,0-3.4214,1.0558-4.1522,2.6949l-17.498,39.2479c-.4181,.9377,.2683,1.9952,1.295,1.9952h47.7193c2.1857,0,4.1669-1.2859,5.0569-3.2822Z" fill="#fff"/>
        <g>
          <ellipse cx="178.1157" cy="175.8455" rx="19.4674" ry="13.032" transform="translate(-71.0903 152.5382) rotate(-39.2894)" fill="#a1c2ff" opacity=".39"/>
          <g clip-path="url(#clippath-1)">
            <g>
              <path d="M182.538,171.3194s2.3742-1.1303,2.692,.2408-.7294,2.3486-.7294,2.3486c0,0,2.1441-.5897,2.7167,1.2417,.5726,1.8313-1.1507,2.7031-.4367,3.3553s2.1928,2.0487,.1237,4.368c-2.069,2.3193-5.0954,4.9814-8.6028,3.2677-3.5074-1.7137-2.39-10.0561-2.39-10.0561l.8571-2.4367,5.7694-2.3293Z" fill="#4361c4"/>
              <path d="M180.2483,164.3209s-5.2864,.4453-6.9556,4.1484c-1.669,3.7031,1.6493,3.9627,1.6493,3.9627l5.3063-8.1111Z" fill="#4361c4"/>
              <path d="M145.8935,189.4948l.3397,.6138s4.0726,4.8592,7.7002,7.9696h7.549c3.938-3.5886,9.3119-9.8442,9.3361-10.0996,.0343-.363,4.7344-5.4744,3.6984-7.5583-1.0359-2.0841-2.3802-1.7497-2.3802-1.7497,0,0-1.5313,.209-3.2513,1.9902-1.7198,1.7813-10.2037,14.9341-10.2037,14.9341,0,0-1.0871-1.9639-3.0933-3.4628-2.0062-1.499-7.8728-4.6588-7.8728-4.6588,0,0,.3595-2.5385,.3259-3.0243-.0336-.4858-1.4947-2.7004-1.9375-2.225-.4427,.4754,.5932,2.5594,.5932,2.5594,0,0-1.1435,4.0977-.8037,4.7114Z" fill="#94c3ff"/>
              <path d="M164.7818,194.3945s.2247,1.6166,.657,3.6837h14.9881c.3319-3.383,1.0325-10.184,1.4514-11.7978,.5633-2.1704,.0656-6.789,.2453-8.0583s-3.4444-.8029-3.4444-.8029l-4.7212,.0786-.7618,.3261c-1.0453,.4476-1.9945,1.239-2.6114,2.1836-.5843,.8948-1.4458,2.1974-2.6038,3.9075-1.8643,1.4144-5.975,3.8708-5.6715,6.9696,.3035,3.0987,2.4723,3.5099,2.4723,3.5099Z" fill="#4385ff"/>
              <path d="M175.5428,174.6223s-4.1897,5.1831-5.3438,11.7058c1.3667-.4195,5.5241-4.2337,7.9751-6.5594,1.0336-.9808,1.1297-1.5161,.939-2.5219-.0939-.4952,.3407-1.8661,.9218-3.4357,.3847-2.1742-4.4921,.8112-4.4921,.8112Z" fill="#94c3ff"/>
              <path d="M188.692,195.8268s.6522,.8998,1.7284,2.2514h6.705c-1.2927-1.7129-2.3199-3.0956-2.6393-3.5797-1.0959-1.6609-8.7625-18.3803-13.4343-16.2999-.8638,.3847-3.9837,3.005-2.7103,5.943,1.2734,2.9381,10.3505,11.6852,10.3505,11.6852Z" fill="#94c3ff"/>
              <g>
                <path d="M175.3556,167.7826c-.656,.8302-2.3169,3.0026-3.3004,4.9124-.861,1.6719-.2723,3.2033,1.332,3.3743,2.3051,.2458,5.8211-.3256,6.9766-1.6466,1.7153-1.9611,5.395-5.4338,3.9018-8.1314-1.4502-2.6197-4.7542-2.3476-8.314,.8512-.2195,.1972-.4179,.4146-.596,.6401Z" fill="#94c3ff"/>
                <path d="M176.9111,166.0702s-2.3141,3.7829,4.2575,6.1982l.8263,.3731s2.8706-2.2799,2.9126-4.6927c.0418-2.4127-1.2024-3.2919-2.4569-3.8162-1.2545-.5244-4.6623,1.0339-5.5395,1.9376Z" fill="#4361c4"/>
              </g>
              <path d="M180.9885,172.8135s1.6625-1.1479,1.644-.0888c-.0184,1.0592-2.3542,2.1924-2.5986,1.7507-.2445-.4416,.9546-1.6619,.9546-1.6619Z" fill="#94c3ff"/>
            </g>
          </g>
        </g>
        <g>
          <path d="M143.5602,163.5226h-53.2686c-1.6344,0-2.424-1.325-1.7637-2.9595l3.7863-9.3713c.6603-1.6344,2.5206-2.9593,4.155-2.9593h53.2686c1.6344,0,2.4241,1.3249,1.7637,2.9593l-3.7862,9.3713c-.6604,1.6345-2.5207,2.9595-4.1551,2.9595Z" fill="#4385ff"/>
          <polygon points="143.1441 156.6173 97.274 156.6173 98.1707 154.3977 144.0409 154.3977 143.1441 156.6173" fill="#fff"/>
        </g>
        <g>
          <g>
            <path d="M100.4789,9.1854h-1.8014c-.3189,0-.473-.2585-.3441-.5774l.7278-1.8015c.1288-.3189,.4918-.5774,.8107-.5774h1.8015c.3189,0,.4729,.2585,.3441,.5774l-.7279,1.8015c-.1288,.3189-.4918,.5774-.8107,.5774Z" fill="#f9fbfc"/>
            <path d="M118.9557,9.1854h-1.8015c-.3189,0-.473-.2585-.3441-.5774l.7278-1.8015c.1289-.3189,.4918-.5774,.8107-.5774h1.8015c.3189,0,.4729,.2585,.3441,.5774l-.7278,1.8015c-.1289,.3189-.4918,.5774-.8107,.5774Z" fill="#bfd9ff"/>
          </g>
          <g>
            <path d="M97.045,17.6847h-1.8015c-.3189,0-.4729-.2585-.3441-.5774l.7279-1.8015c.1288-.3189,.4918-.5774,.8106-.5774h1.8015c.3189,0,.473,.2585,.3441,.5774l-.7278,1.8015c-.1288,.3189-.4918,.5774-.8107,.5774Z" fill="#bfd9ff"/>
            <path d="M106.2834,17.6847h-1.8015c-.3189,0-.473-.2585-.3441-.5774l.7278-1.8015c.1289-.3189,.4918-.5774,.8107-.5774h1.8015c.3189,0,.4729,.2585,.3441,.5774l-.7278,1.8015c-.1289,.3189-.4918,.5774-.8107,.5774Z" fill="#f9fbfc"/>
            <path d="M115.5217,17.6847h-1.8014c-.3189,0-.473-.2585-.3442-.5774l.7279-1.8015c.1288-.3189,.4918-.5774,.8107-.5774h1.8015c.3188,0,.4729,.2585,.3441,.5774l-.7279,1.8015c-.1288,.3189-.4918,.5774-.8107,.5774Z" fill="#f9fbfc"/>
            <path d="M122.9124,17.6847h-1.8014c-.3189,0-.473-.2585-.3442-.5774l.7279-1.8015c.1288-.3189,.4918-.5774,.8107-.5774h1.8014c.3189,0,.473,.2585,.3442,.5774l-.7279,1.8015c-.1288,.3189-.4918,.5774-.8107,.5774Z" fill="#f9fbfc"/>
          </g>
          <g>
            <path d="M93.6111,26.184h-1.8015c-.3189,0-.473-.2585-.3441-.5774l.7278-1.8015c.1289-.3189,.4918-.5774,.8107-.5774h1.8015c.3189,0,.4729,.2585,.3441,.5774l-.7278,1.8015c-.1289,.3189-.4918,.5774-.8107,.5774Z" fill="#f9fbfc"/>
            <path d="M86.2204,26.184h-1.8015c-.3189,0-.473-.2585-.3441-.5774l.7278-1.8015c.1289-.3189,.4918-.5774,.8107-.5774h1.8015c.3189,0,.4729,.2585,.3441,.5774l-.7278,1.8015c-.1289,.3189-.4918,.5774-.8107,.5774Z" fill="#f9fbfc"/>
            <path d="M102.8494,26.184h-1.8014c-.3189,0-.473-.2585-.3442-.5774l.7279-1.8015c.1288-.3189,.4918-.5774,.8107-.5774h1.8015c.3188,0,.4729,.2585,.3441,.5774l-.7279,1.8015c-.1288,.3189-.4918,.5774-.8107,.5774Z" fill="#f9fbfc"/>
            <path d="M112.0878,26.184h-1.8015c-.3189,0-.4729-.2585-.3441-.5774l.7279-1.8015c.1288-.3189,.4917-.5774,.8106-.5774h1.8015c.3189,0,.473,.2585,.3441,.5774l-.7278,1.8015c-.1289,.3189-.4918,.5774-.8107,.5774Z" fill="#bfd9ff"/>
          </g>
          <path d="M90.1771,34.6833h-1.8014c-.3189,0-.473-.2585-.3442-.5774l.7279-1.8015c.1288-.3189,.4918-.5774,.8107-.5774h1.8014c.3189,0,.473,.2585,.3442,.5774l-.7279,1.8015c-.1288,.3189-.4918,.5774-.8107,.5774Z" fill="#f9fbfc"/>
        </g>
        <g>
          <g>
            <path d="M101.2127,176.0343h-2.5391c-.4495,0-.6667-.3644-.4851-.8139l1.0259-2.5391c.1816-.4495,.6932-.8138,1.1427-.8138h2.5391c.4495,0,.6666,.3643,.485,.8138l-1.0258,2.5391c-.1816,.4495-.6932,.8139-1.1427,.8139Z" fill="#4385ff"/>
            <path d="M127.2553,176.0343h-2.5391c-.4495,0-.6667-.3644-.4851-.8139l1.0259-2.5391c.1816-.4495,.6932-.8138,1.1427-.8138h2.5391c.4495,0,.6666,.3643,.485,.8138l-1.0258,2.5391c-.1816,.4495-.6932,.8139-1.1427,.8139Z" fill="#4385ff"/>
          </g>
          <g>
            <path d="M96.3726,188.0139h-2.5391c-.4495,0-.6666-.3644-.485-.8139l1.0259-2.5391c.1815-.4495,.6931-.8138,1.1426-.8138h2.5391c.4495,0,.6667,.3643,.4851,.8138l-1.0259,2.5391c-.1816,.4495-.6932,.8139-1.1427,.8139Z" fill="#bfd9ff"/>
            <path d="M109.3939,188.0139h-2.5391c-.4495,0-.6666-.3644-.485-.8139l1.0259-2.5391c.1815-.4495,.6931-.8138,1.1426-.8138h2.5391c.4495,0,.6667,.3643,.4851,.8138l-1.0259,2.5391c-.1816,.4495-.6932,.8139-1.1427,.8139Z" fill="#ff8d02"/>
            <path d="M122.4152,188.0139h-2.5391c-.4495,0-.6666-.3644-.485-.8139l1.0259-2.5391c.1815-.4495,.6931-.8138,1.1426-.8138h2.5391c.4495,0,.6667,.3643,.4851,.8138l-1.0259,2.5391c-.1816,.4495-.6932,.8139-1.1427,.8139Z" fill="#bfd9ff"/>
            <path d="M132.8323,188.0139h-2.5392c-.4494,0-.6666-.3644-.485-.8139l1.0259-2.5391c.1816-.4495,.6932-.8138,1.1426-.8138h2.5392c.4494,0,.6666,.3643,.485,.8138l-1.0259,2.5391c-.1816,.4495-.6932,.8139-1.1426,.8139Z" fill="#bfd9ff"/>
          </g>
          <g>
            <path d="M91.5326,199.9935h-2.5392c-.4494,0-.6666-.3644-.485-.8139l1.0259-2.5391c.1816-.4495,.6932-.8139,1.1426-.8139h2.5392c.4494,0,.6666,.3644,.485,.8139l-1.0259,2.5391c-.1816,.4495-.6932,.8139-1.1426,.8139Z" fill="#bfd9ff"/>
            <path d="M81.1155,199.9935h-2.5391c-.4495,0-.6666-.3644-.485-.8139l1.0258-2.5391c.1816-.4495,.6932-.8139,1.1427-.8139h2.5391c.4495,0,.6667,.3644,.4851,.8139l-1.0259,2.5391c-.1816,.4495-.6932,.8139-1.1427,.8139Z" fill="#bfd9ff"/>
            <path d="M104.5539,199.9935h-2.5392c-.4494,0-.6666-.3644-.485-.8139l1.0259-2.5391c.1816-.4495,.6932-.8139,1.1426-.8139h2.5392c.4494,0,.6666,.3644,.485,.8139l-1.0259,2.5391c-.1816,.4495-.6932,.8139-1.1426,.8139Z" fill="#bfd9ff"/>
            <path d="M117.5752,199.9935h-2.5392c-.4494,0-.6666-.3644-.485-.8139l1.0259-2.5391c.1816-.4495,.6932-.8139,1.1426-.8139h2.5392c.4494,0,.6666,.3644,.485,.8139l-1.0259,2.5391c-.1816,.4495-.6932,.8139-1.1426,.8139Z" fill="#ff8d02"/>
          </g>
          <path d="M86.6925,211.9731h-2.5392c-.4494,0-.6666-.3644-.485-.8139l1.0259-2.5391c.1816-.4495,.6932-.8139,1.1427-.8139h2.5391c.4495,0,.6666,.3644,.485,.8139l-1.0259,2.5391c-.1816,.4495-.6931,.8139-1.1426,.8139Z" fill="#ff8d02"/>
        </g>
        <g>
          <polygon points="145.5043 125.5888 73.4451 125.5888 85.3625 102.3081 157.4218 102.3081 145.5043 125.5888" fill="#a1c2ff" opacity=".39"/>
          <g>
            <ellipse cx="133.9241" cy="113.8536" rx="10.7211" ry="8.3606" transform="translate(-41.8239 117.1598) rotate(-41.4467)" fill="#73a5ff"/>
            <path d="M131.4829,118.6649c-.2979,0-.5673-.1136-.738-.341l-2.4467-3.2593c-.3413-.4545-.1576-1.1916,.4104-1.646,.5681-.4547,1.3047-.4547,1.6461,0l1.8289,2.436,6.5339-5.2297c.5681-.4547,1.3047-.4547,1.6461,0,.3413,.4545,.1575,1.1915-.4104,1.646l-7.5623,6.053c-.284,.2274-.6102,.341-.908,.341Z" fill="#fff"/>
          </g>
          <g>
            <path d="M77.1309,58.011c0,1.828-1.3366,3.31-2.9854,3.31s-2.9855-1.482-2.9855-3.31,1.3366-3.31,2.9855-3.31,2.9854,1.482,2.9854,3.31Z" fill="none" stroke="#505e83" stroke-miterlimit="10" stroke-width=".5192"/>
            <path d="M45.805,75.8954s-4.7669,.318-8.3316,5.1303c-3.5647,4.8124,1.6041,22.4578,16.9324,29.5872,9.9812,3.9212,10.6942-4.9906,8.1989-11.2289-2.4953-6.2382-9.7158-22.0242-16.7997-23.4886Z" fill="#fff"/>
            <path d="M113.9367,264.8044c0,2.2645-21.8611,4.1002-48.8281,4.1002s-48.828-1.8357-48.828-4.1002,21.861-4.1,48.828-4.1,48.8281,1.8356,48.8281,4.1Z" fill="#bfd9ff"/>
            <g>
              <path d="M47.2688,251.5354s1.0359-2.2197,4.8835-1.6279c3.8476,.592,4.2915,1.3319,4.7354,3.2558,.444,1.9237,1.7759,3.9955,2.6637,4.4395,.888,.4439,4.1436,2.6637,6.8073,3.1076s2.9597,2.0718,2.3678,2.8117c-.592,.74-10.6549,1.3319-12.8746,1.0359,0,0-7.5472-.148-9.323-.74-1.7758-.5919,.5919-11.5427,.7399-12.2826Z" fill="#16142a"/>
              <path d="M66.5492,251.5354s1.036-2.2197,4.8835-1.6279c3.8476,.592,4.2915,1.3319,4.7355,3.2558,.4439,1.9237,1.7758,3.9955,2.6637,4.4395,.8879,.4439,4.1436,2.6637,6.8073,3.1076,2.6636,.4439,2.9597,2.0718,2.3677,2.8117-.5919,.74-10.6548,1.3319-12.8746,1.0359,0,0-7.5471-.148-9.323-.74-1.7758-.5919,.592-11.5427,.7399-12.2826Z" fill="#16142a"/>
              <path d="M43.7066,196.4355s-1.1257-6.1286,5.3464-8.1857c6.4722-2.057,7.6969,.934,9.6562,6.5236s-1.6553,58.3743-1.6553,58.3743c0,0-7.8865,.1799-9.7982-.9482,0,0-5.2716-35.0264-4.8767-43.5568,.3949-8.5304,1.3276-12.2072,1.3276-12.2072Z" fill="#2b3554"/>
            </g>
            <path d="M74.0118,60.2612s1.515,2.0497,1.515,3.1192-2.0497,1.0694-2.0497,1.0694l.5347-4.1886Z" fill="#ff7759"/>
            <path d="M66.7171,39.3877s4.3785,1.1205,6.8587,7.8434c2.4803,6.7229,.8267,21.0089-.8267,22.6896-1.6535,1.6807-6.6762,1.0384-13.6413-1.2605-7.3592-2.429-9.8459-10.0799-11.1611-15.1264-2.5187-9.6642,5.885-19.6084,18.7704-14.1461Z" fill="#ff8d68"/>
            <path d="M51.0137,76.4963l3.5515-12.7267s7.1032-2.0718,11.5428,2.6637l1.4799,2.0718v8.2871s-7.3993,1.4799-16.5742-.2959Z" fill="#ff8d68"/>
            <path d="M41.0987,145.0129s-2.6637,15.5383,0,33.2964,7.9911,19.5339,12.8746,19.5339,6.2153-14.2065,7.1033-20.4219c.8878-6.2152,4.4395-27.525-2.2198-32.4084-6.6593-4.8836-14.2065-5.3275-17.7581,0Z" fill="#2b3554"/>
            <path d="M59.7447,165.8786s-5.3274-14.2064,3.9956-20.4218c9.3229-6.2153,16.4262-5.3275,18.6459,4.8835,2.2198,10.2109,2.6637,45.2831-.4439,52.3863-3.1076,7.1033-14.2064-3.9955-22.1976-36.848Z" fill="#2b3f63"/>
            <path d="M49.1344,76.429s.9913-3.4844,1.8793-3.7803c.8878-.296,11.8386-1.4799,17.758,2.0717,2.6637,2.0718,2.3677,3.5517,2.3677,3.5517,0,0-17.6689-3.3903-22.005-1.8431Z" fill="#fff"/>
            <path d="M81.6759,145.0125s.8912,2.1388,.3565,2.8517c-.7129,.713-20.8536,7.8424-42.0637,2.6736-.3565,0,.5347-3.5647,.5347-3.5647l41.1725-1.9606Z" fill="#6060e7"/>
            <path d="M39.7669,112.9003c-.592-4.1435-2.3678-24.5653-1.7759-27.525,.5533-2.7662,2.9163-7.8593,7.814-9.4799,.3425-.1134,.6975-.2097,1.0651-.2871,0,0,18.35-1.1838,31.3726,4.4395,0,0,4.4579,3.7031,5.2823,22.5703,0,0-.2449,3.1824-.9579,9.9554-.7129,6.773,.3565,11.7636,1.4259,18.5366,1.0694,6.7729,3.2083,13.5459-4.6341,14.9718-7.4859,1.4259-28.1613,4.9906-40.2814,1.4259-2.4953-1.7824,1.0694-9.9812,1.0694-16.3977s-.38-18.2098-.38-18.2098Z" fill="#8182ee"/>
            <path d="M68.1798,197.3992s-.4439-6.2153,6.2153-7.5472c6.6593-1.3319,7.5472,1.7758,8.8791,7.5472,1.3318,5.7714-6.5645,56.1041-6.5645,56.1041,0,0-8.7138,.5021-10.4896-.8298,0,0-2.0359-34.8525-.704-43.2876,1.3318-8.4351,2.6637-11.9867,2.6637-11.9867Z" fill="#2b3f63"/>
            <path d="M57.9689,162.549s6.2153,19.9778,10.8768,29.7447" fill="none" stroke="#2a2e59" stroke-miterlimit="10" stroke-width=".6659"/>
            <path d="M70.6215,196.2893s3.7736-2.2197,7.5472,0" fill="none" stroke="#2a2e59" stroke-miterlimit="10" stroke-width=".6659"/>
            <path d="M69.9556,198.7311s3.1076-1.7759,8.435,1.9977" fill="none" stroke="#2a2e59" stroke-miterlimit="10" stroke-width=".6659"/>
            <path d="M46.6481,193.6256s2.4417-2.2197,7.9912,.222" fill="none" stroke="#2a2e59" stroke-miterlimit="10" stroke-width=".6659"/>
            <path d="M48.4239,195.8454s3.5516-1.7758,6.8813,.8879" fill="none" stroke="#2a2e59" stroke-miterlimit="10" stroke-width=".6659"/>
            <line x1="56.6371" y1="199.397" x2="55.3052" y2="244.6801" fill="none" stroke="#2a2e59" stroke-miterlimit="10" stroke-width=".6659"/>
            <path d="M74.9871,161.4391s5.0314,2.9597,7.1032-1.7759" fill="none" stroke="#2a2e59" stroke-miterlimit="10" stroke-width=".6659"/>
            <path d="M80.0185,162.031s2.3677,18.35,1.7758,30.4847" fill="none" stroke="#2a2e59" stroke-miterlimit="10" stroke-width=".6659"/>
            <path d="M64.7392,66.9883s1.5537,3.9956,6.7702,3.3296" fill="none" stroke="#e66657" stroke-miterlimit="10" stroke-width=".6659"/>
            <path d="M71.4352,42.3272s2.5286,3.4768,2.6867,5.5313c.158,2.0544-3.1607,4.1089-3.6349,5.3732-.4741,1.2644,.6124,2.8528,.1383,3.643s-.6238,2.4062-.6238,2.4062l.1627,1.7899c.0595,.6545-.3843,1.2485-1.0288,1.377l-.3793,.0756c-.5452,.1087-1.0887-.1827-1.2942-.6992-.5683-1.4279-1.7423-4.095-2.6642-4.3255-1.2643-.3161-2.5285,1.8965-3.0027,3.0027-.2672,.6236-.9387,2.3084-1.4737,3.66-.4682,1.1824-1.5727,1.9859-2.8412,2.0767-1.3672,.0979-3.0063,.1662-3.609-.006-1.1063-.316-6.7734-10.7879-6.9315-15.845-.158-5.0572,3.3188-10.1144,6.9536-11.6947,3.6349-1.5804,10.7465-3.0027,17.542,3.6348Z" fill="#7e3636"/>
            <path d="M45.8334,86.2613c0,1.4224,5.9559,22.8758,5.0077,26.6687-.9482,3.7929-3.5647,30.3001-3.5647,30.3001" fill="none" stroke="#6060e7" stroke-miterlimit="10" stroke-width=".6659"/>
            <path d="M62.3373,35.4419s3.4756,.1336,4.6787-1.6042c1.2031-1.7378,5.0797-2.1388,7.887,.6684,2.8072,2.8072,2.6735,8.0206,.2673,9.8921,0,0,2.8072-.5347,3.2083,1.4705,.401,2.0051-3.0746,5.0797-7.2186,6.0154,0,0-6.6838-1.8714-8.689-.6684-2.0052,1.2031-15.5065-.1336-15.5065-.1336,0,0-2.9409-2.6736-2.1389-5.0798,.8021-2.4061,1.6042,.1337,1.6042,.1337,0,0-.6684-3.3419,3.7429-8.1543,4.4114-4.8124,10.5605-2.1388,12.1646-2.5398Z" fill="#7e3636"/>
            <path d="M127.9727,107.0927l9.4911,.4011s-.2673,.9357-1.7378,1.2031c-1.4704,.2673-6.9512,.9357-6.9512,.9357l-.8021-2.5399Z" fill="#eb7754"/>
            <path d="M129.1758,109.0979s3.2083-.5347,3.8767-.401c.6684,.1336,1.3367,4.0103,1.3367,4.0103l-2.5398,2.6735s-.9358-.401,0-1.8715l.5347-.9357-3.8766-1.4704,.6683-2.0052Z" fill="#ff8d68"/>
            <g>
              <path d="M119.9521,111.3704l4.0103-.5347s3.342-3.3419,4.0103-3.743c.6684-.401,4.0104,4.8124,4.4114,5.4808,0,.5347-2.0052,2.2725-4.0103,2.5399-2.0052,.2673-2.6736-.2674-2.6736-.2674l-4.4113,1.7378-1.3368-5.2134Z" fill="#ff8d68"/>
              <g>
                <path d="M78.2427,80.0478s-8.9542-.0915-8.6868,10.87c.2673,10.9615,18.9821,28.8743,24.0619,31.0131,5.0797,2.1388,26.7354-3.743,28.6068-4.8124,1.8715-1.0694,1.3368-5.6144-1.6041-6.6838l-22.1904-1.0694s-13.9067-28.4239-20.1874-29.3175Z" fill="#fff"/>
                <path d="M98.7866,111.1476s2.6735,2.8518,1.9606,6.5948" fill="none" stroke="#a6d0f4" stroke-miterlimit="10" stroke-width=".5347"/>
                <path d="M100.2125,110.6129s4.4559,1.4259,4.8124,6.2383" fill="none" stroke="#a6d0f4" stroke-miterlimit="10" stroke-width=".5347"/>
              </g>
            </g>
            <line x1="77.1309" y1="58.011" x2="67.8626" y2="58.011" fill="none" stroke="#505e83" stroke-miterlimit="10" stroke-width=".5192"/>
            <path d="M68.9581,59.1136s-.6303-2.7311-2.9413-1.4706c-2.311,1.2606,.4202,7.7734,2.311,7.3532s1.0505-4.8321,.6303-5.8826Z" fill="#ff7759"/>
            <path d="M49.638,46.2697s6.4165-1.4705,10.9615,3.3419" fill="none" stroke="#663136" stroke-miterlimit="10" stroke-width=".5347"/>
            <path d="M50.4846,45.2894s2.7627-2.9409,7.4859-1.6932" fill="none" stroke="#663136" stroke-miterlimit="10" stroke-width=".5347"/>
            <path d="M49.8608,47.5173s1.9606,.1783,3.2974,2.4062" fill="none" stroke="#663136" stroke-miterlimit="10" stroke-width=".5347"/>
            <path d="M69.2885,34.7735s6.4165,2.0051,4.9461,7.8869" fill="none" stroke="#663136" stroke-miterlimit="10" stroke-width=".5347"/>
          </g>
        </g>
      </g>
    </g>
  </g>
</svg>